<svg t="1676344500646" class="icon" viewBox="0 0 1024 1024" version="1.1" xmlns="http://www.w3.org/2000/svg" p-id="2196" width="200" height="200"><path d="M507.904 837.632c-11.264 0-20.48-9.216-20.48-20.48v-219.648c0-11.264 9.216-20.48 20.48-20.48s20.48 9.216 20.48 20.48v219.648c0 11.264-9.216 20.48-20.48 20.48z" p-id="2197"></path><path d="M507.904 147.968c226.304 0 409.6 91.648 409.6 204.8s-183.296 204.8-409.6 204.8-409.6-91.648-409.6-204.8 183.296-204.8 409.6-204.8m0-40.96c-115.712 0-224.768 23.04-307.712 64.512-92.16 46.08-142.848 110.592-142.848 181.248s50.688 135.68 142.848 181.248c82.944 41.472 192.512 64.512 307.712 64.512 115.712 0 224.768-23.04 307.712-64.512 92.16-46.08 142.848-110.592 142.848-181.248s-50.688-135.68-142.848-181.248c-82.944-41.984-192-64.512-307.712-64.512zM507.904 934.912c-100.352 0-179.2-51.712-179.2-117.76s78.848-117.76 179.2-117.76 179.2 51.712 179.2 117.76-78.848 117.76-179.2 117.76z m0-194.56c-74.752 0-138.24 35.328-138.24 76.8s63.488 76.8 138.24 76.8 138.24-35.328 138.24-76.8-63.488-76.8-138.24-76.8z" p-id="2198"></path><path d="M102.4 352.768a409.6 204.8 0 1 0 819.2 0 409.6 204.8 0 1 0-819.2 0Z" fill="#E33355" p-id="2199"></path><path d="M512 188.928c217.088 0 368.64 86.528 368.64 163.84s-151.552 163.84-368.64 163.84-368.64-86.528-368.64-163.84 151.552-163.84 368.64-163.84m0-40.96c-226.304 0-409.6 91.648-409.6 204.8s183.296 204.8 409.6 204.8 409.6-91.648 409.6-204.8-183.296-204.8-409.6-204.8z" fill="#FFFFFF" p-id="2200"></path></svg>